<svg xmlns="http://www.w3.org/2000/svg" width="92" height="82" viewBox="0 0 92 82">
    <defs>
        <linearGradient id="a" x1="50.019%" x2="50.019%" y1="99.988%" y2="-.007%">
            <stop offset="0%" stop-color="gray" stop-opacity=".25"/>
            <stop offset="54%" stop-color="gray" stop-opacity=".12"/>
            <stop offset="100%" stop-color="gray" stop-opacity=".1"/>
        </linearGradient>
    </defs>
    <g fill="none" fill-rule="nonzero">
        <path fill="#000" d="M61.363 70.973L49.842 75.43l-16.84 6.51c-.636-1.18-1.573-2.794-2.733-4.71-3.988-6.61-10.587-16.89-16.461-25.926C7.188 41.124 1.49 32.53 1.49 32.53l4.124-1.196 33.69-9.77 22.058 49.41z" opacity=".1"/>
        <path fill="#FFF" d="M61.593 70.169l-11.521 4.457-16.84 6.51c-.636-1.18-1.573-2.794-2.733-4.71-3.988-6.61-10.588-16.89-16.461-25.926C7.418 40.32 1.72 31.725 1.72 31.725l4.125-1.196 33.69-9.77 22.058 49.41z"/>
        <path fill="#000" d="M61.593 70.169l-11.521 4.457a86.648 86.648 0 0 1-19.573 1.8C26.51 69.816 19.91 59.536 14.038 50.5L5.845 30.53l33.69-9.772 22.058 49.41z" opacity=".1"/>
        <path fill="#303030" d="M70.165 67.396s-17.9 10.587-44.622 8.198L4.237 23.657l10.21-1.754 35.293-6.06 20.025 50.55.4 1.003z"/>
        <path fill="#000" d="M69.765 66.392c-4.215.207-9.09.187-13.996-.397-5.31-.623-10.643-1.912-15.226-4.27-3.827-1.973-7.1-4.115-9.953-6.687-7.421-6.675-12.014-16.224-16.139-33.135l35.293-6.06 20.021 50.55z" opacity=".1"/>
        <path fill="#FFF" d="M82.894 63.489s-13.2 2.586-26.621.993c-5.309-.626-10.649-1.911-15.226-4.27-3.827-1.972-7.099-4.115-9.953-6.686-9.189-8.27-14.037-20.93-19.038-46.507 0 0 21.938 5.294 43.613-6.302 0 0 7.31 45.63 27.225 62.772z"/>
        <path fill="#909090" d="M56.273 64.482c-5.309-.626-10.649-1.911-15.226-4.27-3.827-1.972-7.099-4.115-9.953-6.686 7.82-.635 8.945-4.911 8.945-4.911 5.798 9.202 16.234 15.867 16.234 15.867z" opacity=".1"/>
        <path fill="#D8232A" d="M23.4 16.41s11.785 1.345 22.815-4.853l.755 2.427S36.42 19.246 23.4 19.246V16.41z" opacity=".3"/>
        <path fill="#606060" d="M23.4 28.388s11.716-.945 24.758-7.248l.441 1.008s-4.8 6.04-25.198 7.619v-1.379zM24.79 33.06s11.715-.945 24.757-7.247l.44 1.009s-4.798 6.046-25.198 7.625V33.06zM26.06 38.097s11.715-.945 24.757-7.247l.441 1.008s-4.806 6.043-25.198 7.625v-1.386zM27.568 42.413s11.715-.945 24.757-7.247l.441 1.008s-4.799 6.044-25.198 7.627v-1.388z" opacity=".3"/>
        <path fill="#909090" d="M28.957 47.09s11.716-.945 24.758-7.247l.44 1.008s-4.799 6.044-25.198 7.626V47.09z" opacity=".1"/>
        <path fill="#F5F5F5" d="M50.093 19.11l3.279-1.116 1.116 3.279-3.279 1.116zM51.958 23.987l3.279-1.116 1.116 3.279-3.279 1.116zM54.948 33.371l3.279-1.116 1.116 3.278-3.279 1.116zM56.663 38.407l3.279-1.116 1.116 3.279-3.279 1.116zM53.478 29.054l3.279-1.116 1.116 3.278-3.279 1.116z"/>
        <path fill="url(#a)" d="M91.034 42.094l-.123-.115a6.76 6.76 0 0 1 .616-.093s-1.088-3.935-2.922-5.248c-.907-.649-1.663-1.73-2.197-2.656a40.165 40.165 0 0 0-3.273-4.798l-.33-.417-.143-.181c.199-.301.442-.587.415-.936v-.007a.642.642 0 0 0-.023-.183l-.013.02c-.155-.45-.75-.65-1.193-.897-1.034-.583-1.476-1.855-1.697-3.038-.172-.92-.314-1.953-1.033-2.544-.46-.38-1.084-.506-1.547-.884-.44-.358-.684-.901-.96-1.4-.459-.834-1.065-1.609-1.866-2.106-.8-.498-1.817-.69-2.696-.356-.336.128-.642.328-.975.467-.827.345-1.774.299-2.593.663-1.009.448-1.664 1.438-2.264 2.377-.31.486-.797 1.197-1.074 1.913V21.6a2.736 2.736 0 0 0-.214.995c-.005.145.01.29.048.432.124.46.493.713.932.89.026.146.06.29.101.433a4.25 4.25 0 0 0 2.745 2.804c.038.013.077.023.115.034.032.09.078.176.137.253.366.46 1.101.328 1.58-.006.019-.013.037-.029.055-.043.004.065.01.13.021.195.01.055.019.114.03.164.43 2.321 1.533 3.574 1.533 3.574s.103.154.27.409c-.088 1.28.496 2.448 1.172 3.35-.583.336-1.838.995-2.614.94 0 0-2.853.369-3.184.184-.046-.026-.09.009-.131.087-.786-.479-3.298-1.86-3.512-.087-.195 1.608 2.095 1.813 3.185 1.821-.05.471-.077.848-.077.848l4.687-.32 2.44-.36c-.27.357-.574.675-.871.83 0 0-2.207 1.786-2.588 1.803-.054 0-.071.054-.063.14-.928 0-3.814.134-3.014 1.742.727 1.458 2.774.45 3.7-.108a27 27 0 0 0 .404.756l3.782-2.694.82-.689c.277-.013.55-.066.813-.157 0 .01.008.02.012.03.03.084.051.171.065.26.23 1.32-.542 4.397-.542 4.397s-1.697 4.33-.882 4.92c.816.59.213 3.081.213 3.081.142.24.306.466.489.676.086.1.182.19.286.272a2.575 2.575 0 0 0 .04 1.905c.56 1.36.22 3.331.22 3.331l-1.1 7.434c-.53-.08-1.211-.147-1.465 0-.39.219-.262 1.325.642 1.8-.275.21-.592.357-.93.429-.805.184-1.37.3-1.742.372-.024 0-1.93-.42-2.419-.142-.489.278-.253 1.819 1.139 2.197 1.362.369 6.442.91 7.905.69l.093-.017c1.244-.246.152-1.88.014-2.079-.01-.067-.017-.137-.026-.212a10.82 10.82 0 0 1-.05-.575c1.388.128 2.757.19 3.385.096.03 0 .057-.01.083-.015 1.101-.219.136-1.663.012-1.838a60.664 60.664 0 0 0-.017-.141v-.013c0-.033-.008-.069-.011-.103-.004-.035 0-.059-.01-.09-.009-.03 0-.055-.008-.084l-.013-.175v-.075c0-.046-.006-.092-.008-.14v-.076c0-.069 0-.14-.007-.211v-.059-.175-.083-.184-.061c0-.077.007-.156.011-.235l.007-.085c0-.06.01-.115.015-.175 0-.029 0-.057.01-.086.008-.08.019-.161.03-.243 0-.024.008-.048.012-.072.01-.06.02-.123.032-.185 0-.03.011-.06.018-.092l.045-.2c0-.018.008-.036.013-.055a5.666 5.666 0 0 1 .094-.321l.062-.177.027-.074a4.605 4.605 0 0 1 .13-.288c.028-.06.059-.115.091-.177l.039-.068c.044-.073.088-.147.138-.217 1.263-1.8 1.596-5.274 1.565-6.03-.03-.755.15-2.323.377-2.555.152-.155 1.034-1.379 1.561-2.309.095-.17.178-.33.243-.472.375-.13.623-.23.623-.23a5.326 5.326 0 0 1-.188-1.48c.009-.978.278-2.265 1.387-3.31 1.638-1.544 1.867-3.074 1.888-3.662v-.11c-.003-.107-.009-.16-.009-.16z"/>
        <path fill="#F0A3A3" d="M86.67 51.727a19.742 19.742 0 0 1-1.494 2.282c-.215.23-.389 1.782-.359 2.527.03.746-.286 4.182-1.493 5.962-1.207 1.78-.587 4.858-.587 4.858l-1.926.675h-2.315l-1.594-.477-.42-1.16s.56-.086 1.952-.417a1.807 1.807 0 0 0 1.442-1.639l.977-6.825s.289-1.723-.187-2.916a2.373 2.373 0 0 1 .156-2.078l.031-.049s1.508-1.19 3.045-1.936c1.361-.657 2.742-.97 3.133.196.05.15-.114.538-.361.997z"/>
        <path fill="#FFB8B8" d="M86.67 51.727a19.742 19.742 0 0 1-1.494 2.282c-.215.23-.389 1.782-.359 2.527.03.746-.286 4.182-1.493 5.962-.85 1.256-.794 3.153-.69 4.165.045.424.1.69.1.69l-1.926.675h-2.312l-1.594-.474-.42-1.16s.14-.021.46-.083c.319-.062.803-.168 1.5-.334a1.807 1.807 0 0 0 1.434-1.639l.977-6.825s.289-1.723-.187-2.916a2.373 2.373 0 0 1 .156-2.078l.031-.049s1.508-1.19 3.045-1.936c1.361-.657 2.742-.97 3.133.196.05.15-.114.538-.361.997z" opacity=".05"/>
        <path fill="#000" d="M82.737 67.357l-1.926.675h-2.315l-1.594-.478-.42-1.16s.14-.021.46-.083a.867.867 0 0 0 .667.937l.905.03c.127 0 .256.008.382.008 1.273 0 2.538-.21 3.742-.622.046.424.099.693.099.693z" opacity=".1"/>
        <path fill="#303030" d="M78.512 67.474l-.906-.031s-.845-.18-.638-1.138c0 0-1.631-.37-2.048-.125-.417.244-.216 1.594.962 1.925 1.149.322 5.451.797 6.688.603l.08-.014c1.12-.23 0-1.838 0-1.838-1.33.455-2.732.665-4.138.618z"/>
        <path fill="#FFB8B8" d="M84.093 51.991c-.06.122-.126.248-.2.38-.57 1.034-1.481 2.336-1.64 2.504-.244.26-.438 2.01-.407 2.856.03.845-.323 4.718-1.685 6.728-.698 1.034-.855 2.44-.843 3.573.003.384.026.767.067 1.149.05.467.115.759.115.759l-2.173.762h-2.615l-1.8-.536-.47-1.314s.156-.025.51-.095.905-.187 1.693-.373a2.042 2.042 0 0 0 1.623-1.85l1.102-7.703s.325-1.947-.21-3.29a2.642 2.642 0 0 1 .215-2.402s.42-.331 1.055-.769c.28-.193.605-.406.954-.622 1.535-.95 3.553-1.92 4.52-1.213.213.16.37.386.446.642.039.133-.07.435-.257.814z"/>
        <path fill="#000" d="M79.495 69.941l-2.174.762h-2.61l-1.799-.536-.47-1.314s.156-.025.51-.095a.96.96 0 0 0 .306.849c.18.154.41.24.648.243l.823.027c.144 0 .288.008.432.008 1.437 0 2.864-.238 4.224-.703.05.467.11.76.11.76z" opacity=".1"/>
        <path fill="#303030" d="M74.728 70.072l-.822-.027a1.034 1.034 0 0 1-.65-.244c-.208-.186-.389-.508-.272-1.049 0 0-1.837-.417-2.312-.14-.474.275-.242 1.799 1.087 2.172 1.301.364 6.153.9 7.55.681l.088-.016c1.263-.26 0-2.076 0-2.076-1.5.515-3.083.752-4.67.7z"/>
        <path fill="#000" d="M86.67 51.727c-.787.275-1.943.639-2.577.654-.065.002-.13 0-.196-.01-.443-.06-1.814.037-3.07.15-.504.045-.99.092-1.39.133-.597.062-1.008.107-1.008.107v-.39c.28-.192.605-.406.954-.622 1.535-.95 3.553-1.92 4.52-1.213 1.36-.657 2.741-.97 3.133.197.046.148-.12.535-.366.994z" opacity=".1"/>
        <path fill="#303030" d="M90.445 42.668c-.022.583-.24 2.094-1.804 3.622-1.994 1.947-1.149 4.742-1.149 4.742s-2.378.934-3.403.96c-.066.002-.132-.001-.197-.01-.615-.086-3.06.14-4.464.283-.597.062-1.009.107-1.009.107v-8.27l11.019-2.675.998.993c.008.083.011.166.009.248z"/>
        <path fill="#000" d="M78.606 52.27l-.182.019v.087s.411-.045 1.008-.107c1.009-.102 2.55-.246 3.568-.288-.705-.064-3.035.15-4.394.288zM90.44 42.425l-.998-.995-.665.167.836.832c.006.083.006.167 0 .25-.021.58-.24 2.094-1.804 3.621-1.994 1.946-1.149 4.743-1.149 4.743s-1.967.771-3.094.931c.108 0 .215.006.322.017.065.01.13.013.196.01 1.026-.025 3.403-.958 3.403-.958s-.85-2.797 1.149-4.743c1.564-1.527 1.783-3.04 1.804-3.621.006-.085.006-.17 0-.254z"/>
        <path fill="#FFB8B8" d="M68.427 36.827s-3.331-2.311-3.576-.23c-.244 2.081 3.576 1.784 3.576 1.784v-1.554z"/>
        <path fill="#D8232A" d="M74.17 35.295s-1.802 1.192-2.8 1.118c0 0-2.724.366-3.04.183-.318-.183-.51 2.642-.51 2.642l4.479-.316 2.871-.439s1.436-.875 1.436-1.63c0-.754-2.436-1.558-2.436-1.558z"/>
        <path fill="#D8232A" d="M74.17 35.295s-1.802 1.192-2.8 1.118c0 0-2.724.366-3.04.183-.318-.183-.51 2.642-.51 2.642l4.479-.316 2.871-.439s1.436-.875 1.436-1.63c0-.754-2.436-1.558-2.436-1.558z" opacity=".05"/>
        <path fill="#FFB8B8" d="M71.527 41.308s-4.051-.167-3.144 1.723c.908 1.89 3.978-.404 3.978-.404l-.834-1.319z"/>
        <path fill="#5C5C8E" d="M75.602 37.29s-3.284-2.457-2.82-5.45c.462-2.991 2.82 2.291 2.82 2.291v3.159z"/>
        <path fill="#FFB8B8" d="M74.695 23.725a4.156 4.156 0 0 1-5.52 3.921 4.15 4.15 0 1 1 5.52-3.916v-.005z"/>
        <path fill="#000" d="M90.445 42.668c-.372.07-.832.193-.832.386 0 .325-5.189 2.077-5.189 2.077s.194.452-.324 1.231c-.518.779-4.735 5.254-4.735 5.254l.013.133.054.516.258 2.465s-1.622-.584-2.141-.52c-.168.022-.345-.086-.518-.24.064-.296.18-.577.344-.83 0 0 .42-.33 1.055-.768v-8.27l11.018-2.675.998.993c.005.083.005.166-.001.248z" opacity=".1"/>
        <path fill="#D8232A" d="M90.911 42.211s-1.298.129-1.298.454-5.189 2.077-5.189 2.077.194.452-.324 1.23c-.518.78-4.735 5.256-4.735 5.256l.325 3.112s-1.622-.583-2.141-.519c-.23.029-.488-.185-.7-.434a4.518 4.518 0 0 1-.468-.667s.584-2.466-.194-3.05c-.78-.583.843-4.864.843-4.864s.732-3.044.517-4.35a1.567 1.567 0 0 0-.062-.257c0-.01-.006-.02-.01-.029-.46-1.247-5.44-11.715-5.44-11.715a7.52 7.52 0 0 1 .102-1.14c.025-.156.059-.309.1-.46.027-.097.059-.192.095-.286.154-.395.39-.7.74-.706 0 0 .39-.431 1.303-.548.669-.088 1.623 0 2.915.548 3.048 1.295 3.762 1.362 3.762 1.362l1.531 2.01.315.412a39.728 39.728 0 0 1 3.125 4.744c.51.919 1.232 1.986 2.098 2.628 1.752 1.3 2.79 5.192 2.79 5.192z"/>
        <path fill="#000" d="M79.543 34.711s4.33 1.07 6.008 3.77l-6.008-3.77zM80.88 39.454s.82 5.498.592 5.911c-.227.414-.591-5.911-.591-5.911zM80.588 42.276c-.315.412-1.593 3.6-1.593 3.6l.369 5.352.325 3.112s-1.621-.583-2.14-.519c-.23.029-.49-.185-.7-.434.336-1.823 1.056-5.637 1.186-5.71.17-.098 1.047-3.163 1.093-4.02.046-.859 1.264-2.771 1.264-2.771s.513.977.196 1.39zM79.365 37.022c-.08.242-.205 1.654-.205 1.654-.09 1.243-1.033 1.65-1.613 1.78a1.567 1.567 0 0 0-.062-.257c-.39-1.102-5.45-11.74-5.45-11.74.006-.54.074-1.077.203-1.6 1.101-.325 2.845.174 2.845.174.504-.067 2.149 3.203 2.149 3.203s1.096 2.504 1.216 2.845c.12.341 0 .9.048 1.096.049.195.56.363.633.632.073.269.026.804.074.9.048.094.243 1.07.162 1.313z" opacity=".1"/>
        <path fill="#D8232A" d="M78.975 36.827c-.08.243-.204 1.654-.204 1.654-.074 1.033-.74 1.493-1.296 1.69-.25.089-.513.141-.778.154l-.783.68-3.612 2.66s-1.346-2.49-.98-2.504c.365-.013 2.471-1.782 2.471-1.782.644-.345 1.29-1.493 1.59-2.084a1.82 1.82 0 0 1-.04-.213c-.13-1.102-2.854-5.32-2.854-5.32s-1.053-1.239-1.463-3.535c-.011-.052-.02-.106-.03-.162a1.647 1.647 0 0 1-.02-.215c-.05-.884.593-1.205 1.356-1.281.398-.032.799-.02 1.195.037.394.05.784.126 1.168.23.326-.044 1.13 1.312 1.657 2.274.284.521.488.928.488.928s1.096 2.505 1.216 2.845c.121.34 0 .901.049 1.095.048.194.56.364.633.633.072.269.025.804.073.9.048.095.246 1.072.164 1.316z"/>
        <path fill="#000" d="M83.165 31.215c-.689.704-1.802.706-2.695.344-.894-.361-1.65-1.01-2.479-1.513-.538-.329-1.107-.598-1.637-.936a7.997 7.997 0 0 1-.23-.154c-.61-.432-1.14-.987-1.773-1.379a2.757 2.757 0 0 0-1.424-.46 1.62 1.62 0 0 0-.794.2c-.208.12-.4.264-.574.43-.18.161-.35.332-.539.483-.011-.053-.02-.107-.03-.162a1.647 1.647 0 0 1-.02-.216 4.474 4.474 0 0 1-.432.022 4.05 4.05 0 0 1-1.368-.23c0-.017 0-.034-.01-.052-.155-.817-.436-1.684-1.094-2.143-.381-.266-.99-.376-1.518-.574a4.15 4.15 0 1 1 7.822.449c.668-.087 1.623 0 2.915.548 3.047 1.295 3.761 1.362 3.761 1.362l1.531 2.01c-.165.253-.352.502-.37.797-.028.541.499.919.958 1.174z" opacity=".1"/>
        <path fill="#303030" d="M68.07 25.057c.659.46.94 1.325 1.095 2.141.049.255.095.524.25.726.345.453 1.053.325 1.509 0 .456-.325.815-.818 1.324-1.047.676-.306 1.47-.083 2.103.313.633.397 1.163.951 1.774 1.379.591.416 1.25.714 1.866 1.09.828.504 1.585 1.155 2.479 1.513.893.359 2.01.358 2.694-.344-.46-.255-.986-.632-.95-1.179.035-.546.671-.954.629-1.515-.043-.56-.702-.78-1.175-1.055-.988-.574-1.41-1.838-1.621-3.004-.164-.912-.3-1.93-.98-2.516-.44-.377-1.035-.5-1.478-.873-.42-.355-.652-.891-.919-1.386-.44-.824-1.017-1.59-1.781-2.083-.764-.492-1.736-.689-2.574-.351-.322.127-.615.325-.932.46-.79.344-1.694.294-2.476.654-.964.443-1.59 1.422-2.163 2.351-.484.796-1.446 2.2-1.174 3.233.271 1.051 1.786.995 2.5 1.493z"/>
        <path fill="#000" d="M82.841 28.071a.725.725 0 0 0-.021-.126c-.175.274-.392.54-.413.862a.782.782 0 0 0 .019.222c.194-.309.443-.6.415-.958zM80.664 30.334c-.894-.358-1.65-1.01-2.478-1.514-.617-.375-1.276-.673-1.867-1.09-.611-.432-1.14-.987-1.774-1.378-.633-.392-1.426-.62-2.103-.315-.509.23-.867.718-1.324 1.049-.457.33-1.158.46-1.508 0-.156-.202-.202-.471-.25-.726-.156-.817-.437-1.682-1.094-2.141-.715-.5-2.23-.443-2.505-1.493a1.631 1.631 0 0 1-.036-.574c-.175.468-.266.939-.16 1.35.276 1.053 1.791.997 2.506 1.492.658.46.938 1.326 1.094 2.142.049.255.095.524.25.726.344.453 1.052.325 1.509-.006.457-.33.814-.817 1.324-1.047.676-.304 1.47-.082 2.103.315.633.396 1.163.95 1.774 1.378.591.418 1.25.714 1.866 1.09.828.505 1.585 1.157 2.479 1.515.893.358 2.01.356 2.694-.345a3.299 3.299 0 0 1-.502-.332c-.622.229-1.365.158-1.998-.096z"/>
        <path fill="#5C5C8E" d="M60.335 38.19l9.189-3.432a.873.873 0 0 1 1.124.512.874.874 0 0 1-.513 1.125l-9.189 3.433-1.968-.198 1.357-1.44z"/>
        <path fill="#FFF" d="M70.37 34.995a.875.875 0 0 1-.514 1.125l-9.189 3.432-1.48-.148-.212.23 1.969.197 9.189-3.433a.874.874 0 0 0 .513-1.124.87.87 0 0 0-.357-.437c.031.05.058.103.08.158z" opacity=".1"/>
        <path fill="#EFC8C4" d="M60.335 38.19l.612 1.638-1.616-.162-.353-.036.483-.512z"/>
        <path fill="#727A9C" d="M59.46 39.118a.35.35 0 0 1 .094.104.148.148 0 0 1 0 .16.36.36 0 0 1-.09.062.293.293 0 0 0-.13.222l-.354-.036.48-.512z"/>
        <path fill="#3ACC6C" d="M52.315 20.444l-1.55-.756a.187.187 0 0 1-.086-.25l.164-.338a.186.186 0 0 1 .25-.086l1.045.508 1.09-2.235a.188.188 0 0 1 .25-.087l.338.165a.186.186 0 0 1 .086.25l-1.337 2.742a.187.187 0 0 1-.25.087zM55.7 30.111l-1.55-.756a.187.187 0 0 1-.086-.25l.164-.338a.188.188 0 0 1 .252-.086l1.043.509 1.089-2.237a.188.188 0 0 1 .25-.088l.336.166a.187.187 0 0 1 .088.25l-1.337 2.742a.19.19 0 0 1-.252.086l.003.002zM54.18 25.346l-1.55-.756a.188.188 0 0 1-.087-.25l.166-.338a.186.186 0 0 1 .25-.086l1.044.509 1.09-2.239a.187.187 0 0 1 .25-.086l.338.164a.19.19 0 0 1 .086.252L54.43 25.26a.187.187 0 0 1-.25.086h.001zM57.17 34.476l-1.55-.756a.187.187 0 0 1-.086-.25l.164-.338a.187.187 0 0 1 .25-.086l1.045.509 1.09-2.236a.19.19 0 0 1 .251-.087l.337.165a.186.186 0 0 1 .086.25l-1.336 2.743a.19.19 0 0 1-.251.086z"/>
        <path fill="#FFD037" d="M.513 65.29c0 .313-.035.574-.08.574-.043 0-.077-.255-.077-.575 0-.319.043-.166.087-.166s.07-.148.07.166z"/>
        <path fill="#FFD037" d="M.948 65.664c-.275.15-.516.242-.537.203-.02-.039.186-.19.46-.344.273-.154.166-.042.187 0 .02.041.167-.01-.11.14z"/>
    </g>
</svg>
