<svg xmlns="http://www.w3.org/2000/svg" width="118" height="80" viewBox="0 0 118 80">
    <g fill="none" fill-rule="nonzero">
        <path fill="#2F2E41" d="M20.65 57.751c-3.524-1.965-5.718-4.647-6.521-7.973-.597-2.47-.425-5.248.509-8.259a22.12 22.12 0 0 1 3.076-6.213c7.138-10.104 7.782-16.687 7.066-20.431-.786-4.105-3.338-5.81-3.364-5.827l.11-.17c.027.018 2.646 1.762 3.45 5.95.464 2.415.246 5.168-.648 8.184-1.113 3.753-3.283 7.928-6.45 12.41a21.919 21.919 0 0 0-3.047 6.157c-1.532 4.938-1.749 11.722 5.918 15.996l-.099.176z"/>
        <path fill="#2F2E41" d="M22.345 57.751c3.525-1.965 5.72-4.647 6.522-7.973.596-2.47.425-5.248-.509-8.259a22.12 22.12 0 0 0-3.076-6.213C18.144 25.202 17.5 18.62 18.216 14.875c.786-4.105 3.338-5.81 3.364-5.827l-.11-.17c-.027.018-2.646 1.762-3.45 5.95-.464 2.415-.246 5.168.648 8.184 1.113 3.753 3.282 7.928 6.45 12.41a21.919 21.919 0 0 1 3.047 6.157c1.532 4.938 1.749 11.722-5.918 15.996l.098.176zM109.168 49.263c-3.524-1.965-5.719-4.648-6.521-7.973-.597-2.47-.425-5.248.509-8.26a22.12 22.12 0 0 1 3.076-6.212c7.138-10.104 7.782-16.688 7.066-20.432-.786-4.105-3.338-5.81-3.364-5.826l.11-.17c.026.017 2.646 1.762 3.45 5.95.464 2.415.246 5.168-.648 8.183-1.113 3.753-3.283 7.929-6.45 12.411a21.919 21.919 0 0 0-3.047 6.157c-1.532 4.938-1.749 11.721 5.918 15.995l-.099.177z"/>
        <path fill="#2F2E41" d="M110.863 49.263c3.525-1.965 5.72-4.648 6.522-7.973.596-2.47.425-5.248-.509-8.26a22.12 22.12 0 0 0-3.076-6.212c-7.138-10.104-7.782-16.688-7.066-20.432.786-4.105 3.338-5.81 3.364-5.826l-.11-.17c-.027.017-2.646 1.762-3.45 5.95-.465 2.415-.246 5.168.648 8.183 1.113 3.753 3.282 7.929 6.449 12.411a21.919 21.919 0 0 1 3.048 6.157c1.532 4.938 1.749 11.721-5.918 15.995l.098.177z"/>
        <path fill="#303030" d="M47.274 26.942c-2.648-4.475-7.888-4.684-7.888-4.684s-5.105-.652-8.38 6.163c-3.053 6.352-7.266 12.485-.679 13.972l1.19-3.703.737 3.979c.938.067 1.879.083 2.819.048 7.054-.228 13.773.067 13.557-2.465-.288-3.365 1.192-9.005-1.356-13.31z"/>
        <path fill="#FFB8B8" d="M36.404 36.307c.912 2.019 1.488 4.425 1.831 7.097l7.327-.458c-1.685-2.386-2.244-5.126-1.603-8.242l-7.555 1.603z"/>
        <path fill="#000" d="M36.404 36.307c.912 2.019 1.488 4.425 1.831 7.097l7.327-.458c-1.685-2.386-2.244-5.126-1.603-8.242l-7.555 1.603z" opacity=".2"/>
        <path fill="#FFB8B8" d="M2.412 74.74s-3.791 2.03-1.867 3.765c1.924 1.734 4.465-2.296 4.465-2.296l-2.598-1.47z"/>
        <path fill="#303030" d="M48.767 68.817l-.06 2.775-.126 5.995v.001l-.036 1.736H24.297l.985-5.472.001-.004.883-4.898.394-2.193 19.918-2.748z"/>
        <path fill="#606060" d="M48.767 68.817l-.06 2.775c-7.047-.18-17.97-1.882-22.541-2.642l.393-2.193 19.918-2.748 2.29 4.808z"/>
        <circle cx="39.953" cy="32.529" r="5.724" fill="#FFB8B8"/>
        <path fill="#D8232A" d="M50.942 71.908s.687 6.181-3.434 5.724l-.687-6.182-3.663-3.663-10.303-.229-7.555 7.097s-.229-7.326.687-8.013c.916-.687 2.976-2.29 2.976-2.29v-1.144l-6.181-12.592s3.663-7.555 6.64-7.784l3.891-.229s1.374-.687 1.374-.916c0-.229-.23-2.06.916-1.602 0 0 .103-2.35 1.31-1.633 0 0 3.797 2.977 7.653.13 0 0 1.797-.329 1.568.587-.229.916 0 1.603.458 1.603s2.518.686 2.518 1.144c0 .099.15 1.047.383 2.473v.002c.85 5.2 2.823 16.757 2.823 16.757s2.06 2.976-1.374 10.76z"/>
        <path fill="#D8232A" d="M24.384 49.471l-1.602 1.145L8.129 69.39.345 75.57s4.35-.687 3.434 2.976l26.787-15.339-6.182-13.737z"/>
        <path fill="#606060" d="M49.493 44.389v.002c-.305 1.79-10.227 1.417-11.6 1.417-1.375 0-2.52-.229-3.893-1.144-1.374-.916-.687-2.06-.687-2.06s1.17-.892 1.17-1.12c0-.23-.23-2.061.916-1.603 0 0 .103-2.35 1.31-1.633 0 0 4.001 3.18 7.857.335 0 0 1.797-.33 1.568.586-.229.916 0 1.603.458 1.603s2.518.686 2.518 1.144c0 .099.15 1.047.383 2.473z"/>
        <path fill="#FFB8B8" d="M48.309 35.85s-1.832-3.893-3.663-2.061c-1.832 1.831 2.06 4.579 2.06 4.579l1.603-2.519z"/>
        <path fill="#D8232A" d="M48.309 34.933s-2.828 3.575-3.704 3.848c0 0 2.56 10.118 5.765 12.865l1.831 9.387s7.784-3.205 5.953-8.47l-.055-.158a51.94 51.94 0 0 0-6.275-12.37l-3.515-5.102z"/>
        <path fill="#000" d="M46.798 45.534l5.632 15.5-2.06-9.388z" opacity=".2"/>
        <path fill="#2F2E41" d="M46.103 26.51l-5.176-2.71-7.148 1.108-1.48 6.532 3.682-.141 1.029-2.4v2.36l1.698-.065.986-3.82.617 4.066 6.039-.123z"/>
        <g transform="matrix(-1 0 0 1 116 3)">
            <path fill="#282828" d="M16.872 57.7l-1.989 18.297h13.723l.596-1.392.796 1.392h12.927s-.995-18.893-2.785-19.49c-1.79-.596-23.268 1.194-23.268 1.194z"/>
            <circle cx="28.606" cy="10.567" r="6.961" fill="#FFB8B8"/>
            <path fill="#FFB8B8" d="M24.628 14.942s.597 6.364 0 6.762c-.596.398 9.546.199 9.546.199s-1.392-5.767 0-8.552l-9.546 1.591z"/>
            <path fill="#D8D8D8" d="M28.208 20.312s5.117.797 5.542-.795l2.612 3.58.199 35.797s-21.28 2.585-22.076-1.591c-.795-4.176 8.154-37.19 8.154-37.19l2.253-.146s2.918.345 3.316.345z"/>
            <path fill="#303030" d="M24.859 18.334l-3.413 1.182-9.745 2.387.398 23.865S3.746 69.633 7.525 71.423c3.778 1.79 9.148-2.386 10.74-5.37 1.59-2.983 7.159-44.349 7.159-45.144 0-.796-.565-2.575-.565-2.575zM33.622 18.334l1.348 1.182 9.546 4.376-4.773 24.064s6.364 21.876 3.977 23.07c-2.386 1.193-5.966 4.574-6.762 2.585-.795-1.989-5.48-53.079-3.336-55.277z"/>
            <path fill="#FFB8B8" d="M39.146 50.143s-8.95-3.778-9.148-.397c-.2 3.38 10.142 5.767 10.142 4.773 0-.995-.994-4.376-.994-4.376zM17.27 48.751s10.341 7.756 6.364 9.745c-3.978 1.989-9.149-6.96-9.149-6.96l2.785-2.785z"/>
            <path fill="#303030" d="M31.696.37a.384.384 0 0 1 .37-.218c-3.187-.191-6.544.18-9.21 1.936-.747.492-1.444 1.094-2.294 1.37l.69.542-.824.251 1.213.784c-.25.284-.632.412-1.002.336.528.154.916.623 1.113 1.136.197.512.233 1.07.266 1.62.204-.792 1.067-1.258 1.883-1.305.815-.047 1.61.222 2.404.415 1.73.42 3.525.49 5.28.203-.596 1.197-.093 2.624.413 3.862l1.01 2.47c.562.057.959-.501 1.381-.875.385-.34-1.148 2.652-.91 2.542.308-.142 3.563-3.736 3.716-4.04.695-1.386 1.113-2.93 1.05-4.48-.063-1.549-.63-3.099-1.697-4.223-.725-.763-1.728-.896-2.467-1.53-.29-.25-.292-.445-.692-.59-.132-.05-1.671-.254-1.693-.205zM13.093 22.5l-1.392-.597L.564 40.2s-1.989 4.773 1.591 6.96c3.58 2.188 11.933 8.75 11.933 8.75l4.773-7.358s-9.745-4.574-9.149-6.364c.597-1.79 3.78-6.563 3.78-6.563L13.092 22.5zM41.93 23.494l2.586.398s10.74 21.08 8.154 25.058c-2.586 3.978-13.126 9.546-13.126 9.546s-.199-6.563-1.989-8.95l6.165-2.386-3.38-13.126 1.59-10.54z"/>
        </g>
    </g>
</svg>
