<svg xmlns="http://www.w3.org/2000/svg" width="132" height="80" viewBox="0 0 132 80">
    <g fill="none" fill-rule="nonzero">
        <path fill="#3F3D56" d="M15.838 79.898l-.225-.051c2.508-11.153 8.81-21.28 17.747-28.518a51.195 51.195 0 0 1 82.093 28.382l-.225.051c-5.309-23.31-25.738-39.589-49.68-39.589-23.627 0-44.534 16.707-49.71 39.725z"/>
        <circle cx="48.085" cy="8" r="6.261" fill="#F5A623"/>
        <path fill="#3F3D56" d="M21.11 78.475c.195.722.864 1.17.864 1.17s.353-.724.157-1.446c-.195-.722-.864-1.169-.864-1.169s-.352.723-.157 1.445z"/>
        <path fill="#D8232A" d="M21.397 78.32c.536.522.601 1.324.601 1.324s-.803-.044-1.339-.566c-.536-.522-.601-1.323-.601-1.323s.803.044 1.34.565z"/>
        <path fill="#3F3D56" d="M35.98 78.475c.196.722.865 1.17.865 1.17s.352-.724.157-1.446c-.196-.722-.865-1.169-.865-1.169s-.352.723-.157 1.445z"/>
        <path fill="#D8232A" d="M36.267 78.32c.536.522.602 1.324.602 1.324s-.804-.044-1.34-.566c-.535-.522-.6-1.323-.6-1.323s.803.044 1.338.565z"/>
        <path fill="#303030" d="M38.93 20.978l-2.355-1.883L49.759 7.323h33.432v10.36L61.53 32.278z"/>
        <path fill="#CCC" d="M89.286 13.926V7.558h-4.439v1.56l-1.656-1.795-10.83 11.772-4.238 2.825-6.571 48.007 9.91 9.91h23.03V19.566z"/>
        <path fill="#F2F2F2" d="M36.575 19.095h35.786v60.742H36.575z"/>
        <path fill="#CCC" d="M50.465 65.005h6.592v14.832h-6.592z"/>
        <path fill="#303030" d="M43.402 69.242v-2.354h-2.825v2.354h2.59zM43.167 71.126h-2.59v2.354h2.825v-2.354zM45.286 66.888h2.825v2.354h-2.825zM45.286 71.126h2.825v2.354h-2.825zM62.708 69.242v-2.354h-2.825v2.354h2.59zM62.473 71.126h-2.59v2.354h2.825v-2.354zM64.591 66.888h2.825v2.354h-2.825zM64.591 71.126h2.825v2.354h-2.825zM82.484 22.156V19.8H79.66v2.355h2.59zM82.249 24.04h-2.59v2.353h2.825V24.04zM84.368 19.801h2.825v2.354h-2.825zM84.368 24.039h2.825v2.354h-2.825zM82.484 35.34v-2.355H79.66v2.355h2.59zM82.249 37.223h-2.59v2.355h2.825v-2.355zM84.368 32.986h2.825v2.354h-2.825zM84.368 37.223h2.825v2.354h-2.825zM82.484 48.524V46.17H79.66v2.354h2.59zM82.249 50.408h-2.59v2.354h2.825v-2.354zM84.368 46.17h2.825v2.354h-2.825zM84.368 50.408h2.825v2.354h-2.825zM82.484 61.708v-2.354H79.66v2.354h2.59zM82.249 63.592h-2.59v2.354h2.825v-2.354zM84.368 59.354h2.825v2.354h-2.825zM84.368 63.592h2.825v2.354h-2.825zM40.577 22.156h27.31v5.65h-27.31zM40.577 33.456h27.31v5.65h-27.31zM40.577 44.757h27.31v5.65h-27.31zM40.577 56.058h27.31v5.65h-27.31z"/>
        <path fill="#3F3D56" d="M0 79.6h131.066v1H0z"/>
        <path fill="#3F3D56" d="M21.949 52.982h1v26.75h-1z"/>
        <path fill="#D8232A" d="M28.876 56.39c.043 9.354-6.538 16.967-6.538 16.967s-6.65-7.552-6.694-16.906c-.043-9.353 6.538-16.966 6.538-16.966s6.65 7.552 6.694 16.905z"/>
        <path fill="#000" d="M28.876 56.39c.043 9.354-6.538 16.967-6.538 16.967s-6.65-7.552-6.694-16.906c-.043-9.353 6.538-16.966 6.538-16.966s6.65 7.552 6.694 16.905z" opacity=".1"/>
        <path fill="#3F3D56" d="M13.145 52.982h1v26.75h-1z"/>
        <path fill="#D8232A" d="M20.072 56.39c.043 9.354-6.538 16.967-6.538 16.967s-6.65-7.552-6.693-16.906c-.044-9.353 6.537-16.966 6.537-16.966s6.65 7.552 6.694 16.905z"/>
        <path fill="#FFF" d="M108.998 19.057c-5.335.025-9.677.103-9.677.103s5.161-6.836 9.657-4.303c4.496 2.533 9.661 4.214 9.661 4.214s-4.307-.038-9.641-.014zM20.122 32.198c-5.335.025-9.677.104-9.677.104s5.161-6.837 9.657-4.304c4.496 2.533 9.66 4.215 9.66 4.215s-4.306-.04-9.64-.015zM39.488 4.763c-5.335.025-9.677.104-9.677.104S34.972-1.97 39.468.563c4.496 2.533 9.66 4.215 9.66 4.215s-4.306-.04-9.64-.015z"/>
        <path fill="#3F3D56" d="M119.312 52.982h1v26.75h-1z"/>
        <path fill="#D8232A" d="M126.24 56.39c.042 9.354-6.539 16.967-6.539 16.967s-6.65-7.552-6.693-16.906c-.043-9.353 6.537-16.966 6.537-16.966s6.651 7.552 6.694 16.905z"/>
        <path fill="#303030" d="M95.062 63.127h6.835v-1.65h3.77v1.65h7.07v7.306h-7.07v9.191h-3.77v-9.19h-6.835l-3.535-4.007z"/>
    </g>
</svg>
